Coordinates
version=1
nRows=19
nColumns=33
inDegrees=yes

Units are S.I. units (second, meters, Newtons, ...)
Angles are in degrees.

endheader
time	ground_thorax_rot_x	ground_thorax_rot_y	ground_thorax_rot_z	ground_thorax_tx	ground_thorax_ty	ground_thorax_tz	clav_prot_r	clav_elev_r	scapula_abduction_r	scapula_elevation_r	scapula_upward_rot_r	scapula_winging_r	shoulder_elv_r	plane_of_elev_r	axial_rot_r	elbow_flexion_r	pro_sup_r	wrist_flex_r	wrist_dev_r	clav_prot_l	clav_elev_l	scapula_abduction_l	scapula_elevation_l	scapula_upward_rot_l	scapula_winging_l	shoulder_elv_l	plane_of_elev_l	axial_rot_l	elbow_flexion_l	pro_sup_l	wrist_flex_l	wrist_dev_l
      8.20000000	    -38.77148398	    -22.17249595	     23.84894946	   -115.85552290	    856.26399097	    -43.29264064	     45.00000000	    -45.00000000	     39.71201928	    -45.00000000	    -33.14500983	   2508.86600495	   -825.02596857	    -90.00000000	     20.59855235	   3218.98425283	   -268.27048582	     13.90934034	     11.60539361	     -0.46381230	     33.39963620	    -32.61802778	    -45.00000000	    -45.00000000	   4410.42906196	  -3882.10784527	     26.16826863	     42.87238101	     -9.95545890	     38.59426771	     11.46432808	    -22.05816443
      8.21000000	    -38.62018649	    -22.35154023	     24.10199491	   -115.65031634	    855.84766399	    -43.24343190	     45.00000000	    -45.00000000	     39.98562715	    -45.00000000	    -32.99302472	   2508.59442302	   -824.99809779	    -90.00000000	     20.58233399	   3219.13701600	   -267.55232996	     14.11886122	     11.67052488	     -0.52553705	     33.23108227	    -32.33997632	    -45.00000000	    -45.00000000	   4410.28364928	  -3882.16113852	     26.15694066	     42.68735043	     -9.69196344	     39.20833776	     11.45437911	    -22.15743930
      8.22000000	    -38.74104855	    -22.30794018	     24.05211253	   -115.40855898	    855.43759082	    -43.19381931	     45.00000000	    -45.00000000	     39.64449782	    -45.00000000	    -33.16770704	   2508.80247527	   -824.93782438	    -90.00000000	     20.53536675	   3219.06111653	   -266.91558930	     14.12273702	     11.63128288	     -0.64138838	     33.43179965	    -32.57594645	    -45.00000000	    -45.00000000	   4410.43618211	  -3882.25946605	     26.20692645	     42.79216954	     -9.81205594	     39.67111113	     11.13898682	    -22.26446003
      8.23000000	    -38.65750943	    -22.49043996	     24.21910769	   -115.11115614	    855.05390664	    -43.14784705	     45.00000000	    -45.00000000	     39.89580478	    -45.00000000	    -33.05453538	   2508.65537510	   -824.96383136	    -90.00000000	     20.57453897	   3219.05634346	   -266.49889363	     14.28401732	     11.74532457	     -0.52612400	     33.23869310	    -32.33653202	    -45.00000000	    -45.00000000	   4410.25370653	  -3882.14296714	     26.14818339	     42.80884650	     -9.71188294	     40.02391665	     11.22105093	    -22.22235753
      8.24000000	    -38.71522230	    -22.46251904	     24.18396447	   -114.74281169	    854.70390112	    -43.10744678	     45.00000000	    -45.00000000	     39.67916292	    -45.00000000	    -33.13153650	   2508.81911439	   -824.87951511	    -90.00000000	     20.50319486	   3218.99670149	   -266.20896496	     14.28012021	     11.68173684	     -0.74901480	     33.42557230	    -32.44595684	    -45.00000000	    -45.00000000	   4410.36531838	  -3882.28848205	     26.26000248	     43.00574404	     -9.72568838	     40.18229912	     10.96222807	    -22.34336449
      8.25000000	    -38.61794575	    -22.63750151	     24.39566133	   -114.29490712	    854.40303061	    -43.07535631	     45.00000000	    -45.00000000	     39.89437970	    -45.00000000	    -33.02632385	   2508.68808299	   -824.90039356	    -90.00000000	     20.53723825	   3218.97396958	   -266.04252015	     14.40209312	     11.80523166	     -0.49189591	     33.22847465	    -32.30980409	    -45.00000000	    -45.00000000	   4410.22295996	  -3882.20228378	     26.18614068	     43.13663505	     -9.60703532	     40.34141520	     11.11657149	    -22.26107200
      8.26000000	    -38.69384498	    -22.61030270	     24.31950094	   -113.75614163	    854.15884496	    -43.05282061	     45.00000000	    -45.00000000	     39.72922995	    -45.00000000	    -33.01387589	   2508.83699752	   -824.79840678	    -90.00000000	     20.44804577	   3218.92048396	   -265.95046254	     14.37442216	     11.70773101	     -0.84417591	     33.44645911	    -32.42651851	    -45.00000000	    -45.00000000	   4410.32094649	  -3882.33590326	     26.32537032	     43.38592901	     -9.61955773	     40.35625479	     10.88954107	    -22.39912112
      8.27000000	    -38.56661616	    -22.83856611	     24.58002926	   -113.11545441	    853.97649595	    -43.04057603	     45.00000000	    -45.00000000	     39.99961593	    -45.00000000	    -32.91369973	   2508.68484463	   -824.82522161	    -90.00000000	     20.48772906	   3218.89064107	   -265.93350102	     14.48147362	     11.87286285	     -0.39103721	     33.19478444	    -32.31259981	    -45.00000000	    -45.00000000	   4410.19196250	  -3882.24197468	     26.26144386	     43.60332902	     -9.51801084	     40.44601947	     11.13606411	    -22.25436244
      8.28000000	    -38.56738850	    -22.89847950	     24.56680892	   -112.36496316	    853.85868093	    -43.03900137	     45.00000000	    -45.00000000	     39.91383640	    -45.00000000	    -32.78593278	   2508.84558445	   -824.69827029	    -90.00000000	     20.37393272	   3218.79401372	   -265.94852482	     14.41337777	     11.74015636	     -1.10696699	     33.44100475	    -32.15760475	    -45.00000000	    -45.00000000	   4410.16608505	  -3882.20152066	     26.48680329	     44.00174085	     -9.50634590	     40.40150556	     10.91865806	    -22.45343240
      8.29000000	    -38.57749806	    -22.91573120	     24.59444933	   -111.50174949	    853.80455130	    -43.04817797	     45.00000000	    -45.00000000	     39.88207686	    -45.00000000	    -32.56699171	   2508.83826037	   -824.63283421	    -90.00000000	     20.32598949	   3218.75871002	   -266.03118586	     14.50153741	     11.82722029	     -0.89343728	     33.29942577	    -32.40365778	    -45.00000000	    -45.00000000	   4410.12365754	  -3882.21372630	     26.40980225	     44.52680450	     -9.38429679	     40.44959740	     11.04177887	    -22.39680346
      8.30000000	    -38.58995527	    -22.89025389	     24.53320890	   -110.51836765	    853.80862472	    -43.06822196	     45.00000000	    -45.00000000	     39.84404229	    -45.00000000	    -32.34173610	   2508.97780756	   -824.54579891	    -90.00000000	     20.25894959	   3218.71458719	   -266.14696929	     14.54032649	     11.84357860	     -0.77122131	     33.28119891	    -32.48911256	    -45.00000000	    -45.00000000	   4410.11788854	  -3882.24511598	     26.58787384	     44.98999542	     -9.26687765	     40.48972740	     11.06605443	    -22.42660950
      8.31000000	    -38.58694732	    -23.00685275	     24.55605407	   -109.41660392	    853.86303636	    -43.09880239	     45.00000000	    -45.00000000	     39.82575552	    -45.00000000	    -32.11049871	   2509.05782309	   -824.44827600	    -90.00000000	     20.18200621	   3218.60755197	   -266.26813592	     14.57024850	     11.87549484	     -0.75238695	     33.26038490	    -32.55251801	    -45.00000000	    -45.00000000	   4410.12087295	  -3882.18467960	     26.69088715	     45.49661716	     -9.20363978	     40.56816459	     11.11188199	    -22.43994495
      8.32000000	    -38.53386602	    -23.07454939	     24.61561369	   -108.19124672	    853.95703364	    -43.13938544	     45.00000000	    -45.00000000	     39.90918123	    -45.00000000	    -31.90072226	   2509.13269687	   -824.38946500	    -90.00000000	     20.14379127	   3218.55492148	   -266.38686565	     14.58309798	     11.88367119	     -0.73472076	     33.25620012	    -32.62882633	    -45.00000000	    -45.00000000	   4410.06642707	  -3882.11641075	     26.83245031	     46.06347434	     -9.13544122	     40.65020621	     11.17053878	    -22.47984380
      8.33000000	    -38.48399751	    -23.18578536	     24.68268435	   -106.84519523	    854.07766480	    -43.18838584	     45.00000000	    -45.00000000	     39.96839643	    -45.00000000	    -31.62538017	   2509.20711023	   -824.30305206	    -90.00000000	     20.07856673	   3218.49314679	   -266.50209310	     14.58486419	     11.90488300	     -0.68224832	     33.25485033	    -32.72437473	    -45.00000000	    -45.00000000	   4410.04322233	  -3882.06714054	     26.96007925	     46.65705889	     -9.04148653	     40.77018992	     11.25159401	    -22.52271396
      8.34000000	    -38.42055551	    -23.31543038	     24.77168524	   -105.37852686	    854.21121532	    -43.24341500	     45.00000000	    -45.00000000	     40.08017049	    -45.00000000	    -31.33314223	   2509.26494027	   -824.22983138	    -90.00000000	     20.02709013	   3218.43017279	   -266.60202943	     14.56092238	     11.92980709	     -0.61853307	     33.26237631	    -32.83038743	    -45.00000000	    -45.00000000	   4410.00860115	  -3881.98043284	     27.09286769	     47.28369748	     -8.96668502	     40.93956710	     11.34933818	    -22.54358550
      8.35000000	    -38.34851565	    -23.46953377	     24.87679165	   -103.79269645	    854.34342129	    -43.30096248	     45.00000000	    -45.00000000	     40.18425578	    -45.00000000	    -31.01565677	   2509.33162366	   -824.13494043	    -90.00000000	     19.95425192	   3218.38902636	   -266.68979238	     14.54615473	     11.95045673	     -0.55083926	     33.26948179	    -32.97010472	    -45.00000000	    -45.00000000	   4410.00037491	  -3881.92487559	     27.20784885	     47.95085169	     -8.85098341	     41.13741242	     11.44583364	    -22.57525851
      8.36000000	    -38.26775384	    -23.65861889	     24.98955223	   -102.08816605	    854.46042425	    -43.35702072	     45.00000000	    -45.00000000	     40.29500577	    -45.00000000	    -30.71847214	   2509.42934223	   -824.05780873	    -90.00000000	     19.89916269	   3218.32450612	   -266.75666334	     14.53571550	     11.97479456	     -0.51933008	     33.27103426	    -33.07587641	    -45.00000000	    -45.00000000	   4409.97217749	  -3881.84525034	     27.33333207	     48.60434662	     -8.76345945	     41.38567075	     11.54820939	    -22.58739582
      8.37000000	    -38.18913028	    -23.85961832	     25.12015530	   -100.26912747	    854.54896299	    -43.40739089	     45.00000000	    -45.00000000	     40.33620333	    -45.00000000	    -30.43836223	   2509.55039467	   -823.97936387	    -90.00000000	     19.84217095	   3218.25531233	   -266.81271633	     14.56264760	     11.99085950	     -0.49785313	     33.25799650	    -33.18486006	    -45.00000000	    -45.00000000	   4409.94415085	  -3881.75664836	     27.47284061	     49.33006055	     -8.68040882	     41.64484322	     11.63268079	    -22.61955481
      8.38000000	    -38.07487683	    -24.07814445	     25.30349331	    -98.33413578	    854.59730958	    -43.44869874	     45.00000000	    -45.00000000	     40.47744198	    -45.00000000	    -30.11413397	   2509.60441450	   -823.92661534	    -90.00000000	     19.81118533	   3218.19970063	   -266.84600383	     14.53566943	     12.01424758	     -0.43926255	     33.26523474	    -33.27790174	    -45.00000000	    -45.00000000	   4409.89482363	  -3881.65781837	     27.61266693	     50.00547493	     -8.60160700	     41.96613083	     11.75143048	    -22.59523956
